Coordinates
version=1
nRows=19
nColumns=36
inDegrees=yes

Units are S.I. units (second, meters, Newtons, ...)
If the header above contains a line with 'inDegrees', this indicates whether rotational values are in degrees (yes) or radians (no).

endheader
time	pelvis_tilt	pelvis_list	pelvis_rotation	pelvis_tx	pelvis_ty	pelvis_tz	hip_flexion_r	hip_adduction_r	hip_rotation_r	knee_angle_r	knee_angle_r_beta	ankle_angle_r	subtalar_angle_r	mtp_angle_r	hip_flexion_l	hip_adduction_l	hip_rotation_l	knee_angle_l	knee_angle_l_beta	ankle_angle_l	subtalar_angle_l	mtp_angle_l	lumbar_extension	lumbar_bending	lumbar_rotation	arm_flex_r	arm_add_r	arm_rot_r	elbow_flex_r	pro_sup_r	arm_flex_l	arm_add_l	arm_rot_l	elbow_flex_l	pro_sup_l
      0.92000000	     -1.98001987	     -1.32329159	     -8.39103595	      0.76159947	      1.15194246	     -0.20175264	     -5.86558880	      0.48555687	     -1.31092108	     36.24025955	      0.63251185	    -13.13102800	     -3.09452468	     -6.77594826	     13.74234202	     -1.87369381	    -10.90929588	      7.01628586	      0.12245729	     -0.15904812	      6.68465546	     -6.77594826	    -11.35555273	    -18.61687825	     -2.52177488	    -18.71138261	     -6.74916581	     -0.87108827	     38.37762408	    108.11581419	     -3.10005321	     -9.38483068	    -21.80408327	     37.63035911	    106.31698770
      0.93000000	     -2.00284061	     -1.53992543	     -8.79429619	      0.77126188	      1.15395560	     -0.20143310	     -4.89687211	      0.62627761	     -0.59131264	     38.14824222	      0.66581243	    -13.38368037	     -3.85715071	     -6.78325150	     13.14762613	     -2.03993507	    -11.01714269	      6.96955781	      0.12164173	     -0.12007660	      6.23738711	     -6.78325150	    -11.51453802	    -18.78860089	     -2.06873227	    -19.02887609	     -6.99728549	     -0.40701211	     38.82230688	    108.16852579	     -2.66251192	     -9.48631853	    -21.93882063	     37.89776472	    106.36913446
      0.94000000	     -2.03402334	     -1.78091741	     -9.14636313	      0.78079914	      1.15588227	     -0.20121854	     -3.95279735	      0.82000458	      0.03526387	     39.92288772	      0.69678584	    -13.39705616	     -4.69984180	     -6.79069140	     12.54412723	     -2.19592760	    -11.04259348	      6.85699061	      0.11967706	     -0.13433122	      5.71670649	     -6.79069140	    -11.66574913	    -18.88245057	     -1.71685722	    -19.28828637	     -7.28518453	      0.07372887	     39.24137460	    108.21871999	     -2.31637379	     -9.54700778	    -22.05742246	     38.25414218	    106.42712928
      0.95000000	     -2.20537778	     -2.02846609	     -9.36899552	      0.79019259	      1.15756952	     -0.20124855	     -2.88494793	      1.05326778	      0.43129842	     41.55457072	      0.72526408	    -13.53218434	     -5.84905842	     -6.82327396	     12.00952162	     -2.25939376	    -10.20146503	      6.51898245	      0.11377771	     -0.70794226	      4.03475722	     -6.82327396	    -11.69052051	    -18.90312225	     -1.73203258	    -19.32442478	     -7.72147705	      1.00522735	     39.43302284	    108.20254348	     -2.21318882	     -9.61444461	    -22.50697462	     38.80004133	    106.57540131
      0.96000000	     -2.12861054	     -2.26032897	     -9.61071386	      0.79970038	      1.15940814	     -0.20114476	     -2.14815048	      1.23200787	      0.83261434	     43.00647381	      0.75060457	    -12.99897741	     -6.52499929	     -6.82916624	     11.25493663	     -2.35607697	    -10.19131742	      6.30579547	      0.11005689	     -0.60916715	      3.72637436	     -6.82916624	    -11.94609844	    -18.97039799	     -1.55075424	    -19.46898463	     -7.95955100	      1.22359057	     39.72509357	    108.22806081	     -2.00139902	     -9.74241630	    -22.52493063	     39.29590335	    106.63366798
      0.97000000	     -2.23674184	     -2.42467142	     -9.74251377	      0.80905667	      1.16085250	     -0.20134840	     -1.19179008	      1.34186076	      0.99019455	     44.37873901	      0.77455511	    -12.66576467	     -7.45722491	     -6.87421149	     10.58221433	     -2.27699508	     -9.05511712	      5.78283246	      0.10092947	     -1.31389710	      1.80142326	     -6.87421149	    -12.02075954	    -19.03566530	     -1.76355327	    -19.42448743	     -8.33650927	      1.89948023	     39.84857276	    108.22454357	     -2.09862391	     -9.79587421	    -22.97031178	     40.12708520	    106.73746133
      0.98000000	     -2.20972431	     -2.61186622	     -9.89072194	      0.81850589	      1.16228658	     -0.20139993	     -0.44372911	      1.46228073	      1.14751687	     45.55791727	      0.79513566	    -12.11924255	     -8.24942469	     -6.88078155	      9.89438297	     -2.32669097	     -9.07887838	      5.55721345	      0.09699167	     -1.14878979	      1.59561375	     -6.88078155	    -12.19897823	    -19.07229639	     -1.75160473	    -19.49569188	     -8.52591225	      1.93359556	     40.02550480	    108.23535476	     -2.00700608	     -9.96023891	    -22.87772374	     40.62065644	    106.79170326
      0.99000000	     -2.21588652	     -2.75662149	    -10.00348177	      0.82788594	      1.16350593	     -0.20148889	      0.33264603	      1.53171270	      1.20574782	     46.61686474	      0.81361778	    -11.67738657	     -9.13369208	     -6.88656463	      9.24957449	     -2.33745349	     -9.04724090	      5.33305139	      0.09307931	     -0.99660854	      1.36498267	     -6.88656463	    -12.31610794	    -19.13915539	     -1.83547367	    -19.52229982	     -8.69003066	      1.90606508	     40.13316201	    108.24214841	     -1.98447302	    -10.15218014	    -22.77858751	     41.15881774	    106.83814851
      1.00000000	     -2.24093929	     -2.85921481	    -10.09436733	      0.83724146	      1.16451240	     -0.20164963	      1.13121896	      1.53691858	      1.17034263	     47.57787866	      0.83039063	    -11.34218969	    -10.15510960	     -6.89346592	      8.62221024	     -2.30269191	     -8.94943553	      5.08976228	      0.08883311	     -0.85629752	      1.08802622	     -6.89346592	    -12.40398916	    -19.22142107	     -1.97965276	    -19.52350440	     -8.80251567	      1.80081359	     40.17687775	    108.24121875	     -2.02590054	    -10.36357200	    -22.65896371	     41.75888716	    106.87389374
      1.01000000	     -2.24157621	     -2.93385367	    -10.17199994	      0.84653769	      1.16538884	     -0.20185123	      1.88769853	      1.50136854	      1.09841213	     48.40592305	      0.84484273	    -11.02615159	    -11.17030589	     -6.89946971	      7.98131557	     -2.23916077	     -8.86235539	      4.86450074	      0.08490155	     -0.66618236	      0.86557096	     -6.89946971	    -12.50355501	    -19.32526275	     -2.14181851	    -19.49735120	     -8.89016047	      1.61867618	     40.16027689	    108.22829051	     -2.03204797	    -10.58656203	    -22.53393780	     42.27556861	    106.89264058
      1.02000000	     -2.23053128	     -2.97767214	    -10.25199837	      0.85573793	      1.16610669	     -0.20207476	      2.63598219	      1.42401482	      0.99375450	     49.14202088	      0.85769007	    -10.69602616	    -12.27056217	     -6.90547206	      7.34475954	     -2.14650639	     -8.77827774	      4.66085463	      0.08134726	     -0.44049458	      0.67157894	     -6.90547206	    -12.60477901	    -19.44378335	     -2.29103588	    -19.46448349	     -8.93476546	      1.35306969	     40.11816391	    108.20341221	     -2.02796024	    -10.82592585	    -22.37463823	     42.79510065	    106.90227916
      1.03000000	     -2.20072007	     -3.00617481	    -10.33011323	      0.86485618	      1.16674223	     -0.20232865	      3.35711820	      1.32927016	      0.88791242	     49.76167905	      0.86850514	    -10.32608113	    -13.37548061	     -6.91097709	      6.71633015	     -2.04185820	     -8.72358802	      4.50757814	      0.07867208	     -0.17638821	      0.51424698	     -6.91097709	    -12.70731750	    -19.56428455	     -2.41817911	    -19.42429919	     -8.93148366	      1.03604962	     40.05922488	    108.16884912	     -1.97884150	    -11.05972119	    -22.19439568	     43.27607312	    106.90503939
      1.04000000	     -2.16330826	     -3.02018846	    -10.40718155	      0.87384415	      1.16725883	     -0.20259638	      4.06881462	      1.22979474	      0.79331535	     50.27989961	      0.87754980	     -9.91332888	    -14.51232881	     -6.91633121	      6.11105920	     -1.92677097	     -8.68954671	      4.39588030	      0.07672258	      0.12239139	      0.38232391	     -6.91633121	    -12.82557031	    -19.68825415	     -2.51067071	    -19.38725638	     -8.89978331	      0.66146346	     39.98197156	    108.12368773	     -1.89047490	    -11.29804015	    -21.98957104	     43.75229959	    106.90460280
      1.05000000	     -2.11220555	     -3.03289209	    -10.48457425	      0.88270670	      1.16773298	     -0.20292153	      4.76775389	      1.14080869	      0.72426420	     50.68646702	      0.88464574	     -9.48524687	    -15.59077281	     -6.92113666	      5.52544592	     -1.80822689	     -8.67612758	      4.33747010	      0.07570313	      0.43141712	      0.27462193	     -6.92113666	    -12.95470070	    -19.77530745	     -2.57062217	    -19.33349394	     -8.83320995	      0.27991393	     39.89771424	    108.07416107	     -1.75286089	    -11.51207539	    -21.77748909	     44.19279833	    106.90478092
      1.06000000	     -2.06909866	     -3.03602490	    -10.56020841	      0.89139433	      1.16813755	     -0.20322707	      5.47422471	      1.07027388	      0.69276471	     50.98223543	      0.88980787	     -9.08167274	    -16.70396167	     -6.92650616	      4.97379567	     -1.69076661	     -8.66325730	      4.30453141	      0.07512825	      0.75572322	      0.17263454	     -6.92650616	    -13.09455172	    -19.88385572	     -2.60130615	    -19.28076167	     -8.74057145	     -0.17577059	     39.80457591	    108.01290650	     -1.57549169	    -11.72895179	    -21.52422320	     44.65722106	    106.90355297
      1.07000000	     -2.02246116	     -3.04166198	    -10.63810416	      0.89993029	      1.16855877	     -0.20358481	      6.17093741	      1.01995275	      0.70889806	     51.14089108	      0.89257693	     -8.72752536	    -17.65434549	     -6.93123696	      4.45170901	     -1.57115475	     -8.66306870	      4.30690633	      0.07516970	      1.04388153	      0.07817417	     -6.93123696	    -13.24551578	    -19.94107441	     -2.60580967	    -19.20486229	     -8.62612766	     -0.58121146	     39.72412647	    107.95703229	     -1.34552012	    -11.92972633	    -21.29358256	     45.05903604	    106.90430215
      1.08000000	     -1.97615514	     -3.03918151	    -10.72585464	      0.90831035	      1.16893403	     -0.20391786	      6.87265480	      0.99136789	      0.77444472	     51.20512596	      0.89369804	     -8.39330918	    -18.59162210	     -6.93621744	      3.94018166	     -1.45084143	     -8.65434111	      4.32245538	      0.07544108	      1.32106587	     -0.02424514	     -6.93621744	    -13.39214035	    -20.01427811	     -2.58105181	    -19.10656884	     -8.51496654	     -1.02451018	     39.64705309	    107.89630345	     -1.09491625	    -12.10701422	    -21.02790617	     45.46559902	    106.90969120
      1.09000000	     -1.95210317	     -3.05447975	    -10.79190808	      0.91649755	      1.16933275	     -0.20423971	      7.58667364	      1.02817650	      0.87877607	     51.10815460	      0.89200557	     -8.64007548	    -19.79438810	     -6.95486417	      3.46682889	     -1.35033212	     -8.57483275	      4.33151100	      0.07559913	      1.47485514	     -0.20862171	     -6.95486417	    -13.53821178	    -20.01578732	     -2.43622314	    -19.12159445	     -8.20273048	     -2.09935885	     39.77652621	    107.77532272	     -0.71116607	    -12.35965604	    -20.42135948	     45.76631206	    106.80336332
      1.10000000	     -1.93634679	     -3.06659943	    -10.83580324	      0.92460070	      1.16976215	     -0.20478067	      8.29051647	      1.03117145	      0.96305761	     50.86514841	      0.88776431	     -8.46797815	    -19.95274228	     -6.95556428	      3.03477738	     -1.24264855	     -8.62841958	      4.36308811	      0.07615025	      1.54520160	     -0.24409371	     -6.95556428	    -13.67748827	    -19.98446390	     -2.51746630	    -18.93853078	     -8.22394073	     -2.13449927	     39.80902551	    107.77363888	     -0.36661712	    -12.44820992	    -20.38201814	     45.92213586	    106.81410420
